<svg xmlns="http://www.w3.org/2000/svg" width="8" height="8" viewBox="0 0 8 8" fill="none">
<mask id="mask0_118_1469" style="mask-type:alpha" maskUnits="userSpaceOnUse" x="0" y="0" width="12" height="12">
<rect width="12" height="12" fill="#D9D9D9"/>
</mask>
<g mask="url(#mask0_118_1469)">
<path d="M4.00002 4.46644L2.36668 6.09977C2.30557 6.16088 2.22779 6.19144 2.13335 6.19144C2.03891 6.19144 1.96113 6.16088 1.90002 6.09977C1.83891 6.03866 1.80835 5.96088 1.80835 5.86644C1.80835 5.77199 1.83891 5.69422 1.90002 5.63311L3.53335 3.99977L1.90002 2.36644C1.83891 2.30533 1.80835 2.22755 1.80835 2.13311C1.80835 2.03866 1.83891 1.96088 1.90002 1.89977C1.96113 1.83866 2.03891 1.80811 2.13335 1.80811C2.22779 1.80811 2.30557 1.83866 2.36668 1.89977L4.00002 3.53311L5.63335 1.89977C5.69446 1.83866 5.77224 1.80811 5.86668 1.80811C5.96113 1.80811 6.03891 1.83866 6.10002 1.89977C6.16113 1.96088 6.19168 2.03866 6.19168 2.13311C6.19168 2.22755 6.16113 2.30533 6.10002 2.36644L4.46668 3.99977L6.10002 5.63311C6.16113 5.69422 6.19168 5.77199 6.19168 5.86644C6.19168 5.96088 6.16113 6.03866 6.10002 6.09977C6.03891 6.16088 5.96113 6.19144 5.86668 6.19144C5.77224 6.19144 5.69446 6.16088 5.63335 6.09977L4.00002 4.46644Z" fill="#444FD3"/>
</g>
</svg>