<svg xmlns="http://www.w3.org/2000/svg" width="20" height="20" viewBox="0 0 20 20" fill="none">
<mask id="mask0_112_1353" style="mask-type:alpha" maskUnits="userSpaceOnUse" x="0" y="0" width="20" height="20">
<rect width="20" height="20" fill="#D9D9D9"/>
</mask>
<g mask="url(#mask0_112_1353)">
<path d="M10 12.2291C9.9028 12.2291 9.80919 12.2116 9.71919 12.1766C9.62863 12.1421 9.54863 12.0902 9.47919 12.0208L5.72919 8.27075C5.60419 8.14575 5.54169 7.99992 5.54169 7.83325C5.54169 7.66659 5.60419 7.52075 5.72919 7.39575C5.85419 7.27075 6.00002 7.20825 6.16669 7.20825C6.33335 7.20825 6.47919 7.27075 6.60419 7.39575L10 10.7916L13.3959 7.39575C13.5209 7.27075 13.6667 7.20825 13.8334 7.20825C14 7.20825 14.1459 7.27075 14.2709 7.39575C14.3959 7.52075 14.4584 7.66659 14.4584 7.83325C14.4584 7.99992 14.3959 8.14575 14.2709 8.27075L10.5209 12.0208C10.4514 12.0902 10.3717 12.1421 10.2817 12.1766C10.1911 12.2116 10.0972 12.2291 10 12.2291Z" fill="#81878C"/>
</g>
</svg>