<svg xmlns="http://www.w3.org/2000/svg" width="104" height="101" viewBox="0 0 104 101" fill="none">
  <g clip-path="url(#clip0_566_11915)">
    <path d="M66.0234 22.715H38C37.3614 22.7157 36.7491 22.9685 36.2976 23.4177C35.846 23.867 35.592 24.4761 35.5912 25.1115V87.0768L35.27 87.1742L28.3954 89.2688C28.0696 89.3676 27.7177 89.3338 27.417 89.1747C27.1162 89.0157 26.8912 88.7444 26.7913 88.4204L6.34243 21.9657C6.24292 21.6415 6.27684 21.2913 6.43673 20.992C6.59663 20.6927 6.86941 20.4689 7.19514 20.3696L17.7889 17.1423L48.5006 7.78961L59.0943 4.56233C59.2555 4.51296 59.4249 4.49571 59.5928 4.51157C59.7608 4.52742 59.9239 4.57606 60.0729 4.65471C60.2219 4.73336 60.3539 4.84047 60.4612 4.96992C60.5686 5.09936 60.6492 5.2486 60.6985 5.40909L65.9255 22.3954L66.0234 22.715Z" fill="#F2F2F2"/>
    <path d="M72.1386 22.3957L65.8389 1.92325C65.734 1.58214 65.5627 1.26492 65.3346 0.989723C65.1065 0.714522 64.8262 0.486733 64.5096 0.319371C64.193 0.152009 63.8463 0.0483535 63.4894 0.0143315C63.1326 -0.0196905 62.7724 0.0165877 62.4297 0.121089L47.5355 4.65685L16.8255 14.0112L1.9313 18.5485C1.23939 18.7599 0.660052 19.2358 0.32044 19.8717C-0.0191729 20.5076 -0.0913114 21.2516 0.119862 21.9404L21.651 91.9068C21.8225 92.4628 22.1687 92.9494 22.6386 93.2953C23.1085 93.6412 23.6775 93.8282 24.2621 93.8288C24.5327 93.8289 24.8017 93.7885 25.0602 93.7089L35.2701 90.5999L35.5913 90.5008V90.1669L35.2701 90.2644L24.9655 93.4038C24.3547 93.589 23.6951 93.5257 23.1312 93.2276C22.5674 92.9296 22.1453 92.4213 21.9577 91.8141L0.428249 21.8461C0.335285 21.5452 0.302885 21.2291 0.332902 20.9158C0.362919 20.6024 0.454762 20.2981 0.603177 20.0201C0.751592 19.7422 0.953664 19.4961 1.19781 19.2959C1.44197 19.0957 1.7234 18.9455 2.02601 18.8537L16.9202 14.3163L47.6303 4.9636L62.5245 0.426246C62.754 0.356556 62.9926 0.321022 63.2326 0.320799C63.7476 0.32195 64.2487 0.487141 64.6625 0.792177C65.0763 1.09721 65.3811 1.52607 65.5322 2.01592L71.803 22.3957L71.9025 22.7152H72.2366L72.1386 22.3957Z" fill="#3F3D56"/>
    <path d="M19.7006 20.4217C19.3911 20.4214 19.0898 20.3226 18.8409 20.1395C18.5921 19.9564 18.4087 19.6988 18.3178 19.4045L16.2494 12.6828C16.1938 12.5023 16.1745 12.3126 16.1926 12.1246C16.2107 11.9367 16.2659 11.7541 16.3549 11.5873C16.444 11.4206 16.5652 11.2729 16.7116 11.1527C16.858 11.0326 17.0268 10.9423 17.2083 10.887L45.4613 2.28142C45.8278 2.17015 46.2237 2.2081 46.5621 2.38694C46.9005 2.56578 47.1538 2.8709 47.2663 3.23534L49.3347 9.95706C49.4465 10.3217 49.4083 10.7156 49.2286 11.0523C49.0488 11.3889 48.7422 11.6409 48.3759 11.7529L20.1228 20.3586C19.986 20.4003 19.8437 20.4216 19.7006 20.4217Z" fill="#81878C"/>
    <path d="M30.5357 7.18166C32.3094 7.18166 33.7473 5.75107 33.7473 3.98634C33.7473 2.22161 32.3094 0.791016 30.5357 0.791016C28.7619 0.791016 27.324 2.22161 27.324 3.98634C27.324 5.75107 28.7619 7.18166 30.5357 7.18166Z" fill="#81878C"/>
    <path d="M30.5356 6.00965C31.6588 6.00965 32.5693 5.10375 32.5693 3.98627C32.5693 2.86879 31.6588 1.96289 30.5356 1.96289C29.4124 1.96289 28.5018 2.86879 28.5018 3.98627C28.5018 5.10375 29.4124 6.00965 30.5356 6.00965Z" fill="white"/>
    <path d="M96.7738 93.0112H42.4964C42.1346 93.0108 41.7876 92.8675 41.5317 92.613C41.2758 92.3584 41.1319 92.0132 41.1315 91.6532V26.9479C41.1319 26.5878 41.2758 26.2426 41.5317 25.988C41.7876 25.7335 42.1345 25.5902 42.4964 25.5898H96.7738C97.1357 25.5903 97.4826 25.7335 97.7385 25.9881C97.9944 26.2426 98.1384 26.5878 98.1388 26.9479V91.6532C98.1384 92.0132 97.9944 92.3584 97.7385 92.613C97.4826 92.8675 97.1357 93.0107 96.7738 93.0112Z" fill="#E6E6E6"/>
    <path d="M71.8029 22.3945H37.9999C37.2762 22.3956 36.5825 22.682 36.0707 23.1912C35.559 23.7003 35.271 24.3905 35.27 25.1106V90.2632L35.5912 90.1657V25.1106C35.592 24.4752 35.846 23.8661 36.2976 23.4168C36.7491 22.9676 37.3613 22.7148 37.9999 22.7141H71.9025L71.8029 22.3945ZM101.27 22.3945H37.9999C37.2762 22.3956 36.5825 22.682 36.0707 23.1912C35.559 23.7003 35.271 24.3905 35.27 25.1106V98.2835C35.271 99.0035 35.559 99.6937 36.0707 100.203C36.5825 100.712 37.2762 100.998 37.9999 100.999H101.27C101.994 100.998 102.688 100.712 103.199 100.203C103.711 99.6937 103.999 99.0035 104 98.2835V25.1106C103.999 24.3905 103.711 23.7003 103.199 23.1912C102.688 22.682 101.994 22.3956 101.27 22.3945ZM103.679 98.2835C103.678 98.9188 103.424 99.5279 102.972 99.9772C102.521 100.426 101.909 100.679 101.27 100.68H37.9999C37.3613 100.679 36.7491 100.426 36.2976 99.9772C35.846 99.5279 35.592 98.9188 35.5912 98.2835V25.1106C35.592 24.4752 35.846 23.8661 36.2976 23.4168C36.7491 22.9676 37.3613 22.7148 37.9999 22.7141H101.27C101.909 22.7148 102.521 22.9676 102.972 23.4168C103.424 23.8661 103.678 24.4752 103.679 25.1106V98.2835Z" fill="#3F3D56"/>
    <path d="M84.4088 29.425H54.8614C54.4782 29.4246 54.1109 29.273 53.8399 29.0034C53.569 28.7338 53.4166 28.3684 53.4161 27.9871V20.9574C53.4166 20.5762 53.569 20.2107 53.8399 19.9412C54.1109 19.6716 54.4782 19.52 54.8614 19.5195H84.4088C84.792 19.52 85.1594 19.6716 85.4303 19.9412C85.7013 20.2107 85.8537 20.5762 85.8541 20.9574V27.9871C85.8537 28.3684 85.7013 28.7338 85.4303 29.0034C85.1594 29.273 84.792 29.4246 84.4088 29.425Z" fill="#81878C"/>
    <path d="M69.635 19.9981C71.4088 19.9981 72.8467 18.5675 72.8467 16.8027C72.8467 15.038 71.4088 13.6074 69.635 13.6074C67.8613 13.6074 66.4233 15.038 66.4233 16.8027C66.4233 18.5675 67.8613 19.9981 69.635 19.9981Z" fill="#81878C"/>
    <path d="M69.635 18.7499C70.7154 18.7499 71.5913 17.8786 71.5913 16.8037C71.5913 15.7288 70.7154 14.8574 69.635 14.8574C68.5547 14.8574 67.6788 15.7288 67.6788 16.8037C67.6788 17.8786 68.5547 18.7499 69.635 18.7499Z" fill="white"/>
  </g>
  <defs>
    <clipPath id="clip0_566_11915">
      <rect width="104" height="101" fill="white"/>
    </clipPath>
  </defs>
</svg>